<svg width="40" height="40" viewBox="0 0 40 40" fill="none" xmlns="http://www.w3.org/2000/svg">
<path d="M38.8281 27.0312H37.6562V7.10938C37.6562 5.1709 36.0791 3.59375 34.1406 3.59375H5.85938C3.9209 3.59375 2.35168 5.1709 2.35168 7.10938V27.0312H1.17981C0.532532 27.0312 0 27.5558 0 28.2031V30.5469C0 33.7778 2.62848 36.4062 5.85938 36.4062H34.1406C37.3715 36.4062 40 33.7778 40 30.5469V28.2031C40 27.5558 39.4754 27.0312 38.8281 27.0312ZM4.6875 7.10938C4.6875 6.46332 5.21332 5.9375 5.85938 5.9375H34.1406C34.7867 5.9375 35.3204 6.46332 35.3204 7.10938V27.0312H27.1094C26.4624 27.0312 25.9454 27.5558 25.9454 28.2031V28.2047V29.375H14.0625V28.2031C14.0625 27.5558 13.5379 27.0312 12.8906 27.0312H4.6875V7.10938ZM37.6642 30.5469C37.6642 32.4854 36.0791 34.0625 34.1406 34.0625H5.85938C3.9209 34.0625 2.34375 32.4854 2.34375 30.5469V29.375H11.7267V30.5469C11.7267 31.1942 12.2433 31.7188 12.8906 31.7188H27.1094C27.7567 31.7188 28.2812 31.1942 28.2812 30.5469V29.375H37.6642V30.5469Z" fill="white"/>
<path d="M32.969 23.5156C32.969 22.8683 32.4441 22.3438 31.7971 22.3438H11.0491L17.6528 15.7944L21.5151 19.6567C21.9705 20.112 22.7078 20.1147 23.1664 19.6628L27.9318 14.9658C28.3923 15.188 28.9086 15.3125 29.4534 15.3125C31.3918 15.3125 32.969 13.7354 32.969 11.7969C32.969 9.8584 31.3918 8.28125 29.4534 8.28125C27.5149 8.28125 25.9377 9.8584 25.9377 11.7969C25.9377 12.3364 26.0601 12.8476 26.278 13.3047L22.3498 17.1768L18.485 13.3121C18.0285 12.8555 17.2894 12.854 16.8313 13.3084L9.37524 20.7028V9.45312C9.37524 8.80585 8.85034 8.28125 8.20337 8.28125C7.55609 8.28125 7.03149 8.80585 7.03149 9.45312V23.5156C7.03149 24.1684 7.56586 24.6875 8.20306 24.6875H8.20367H31.7971C32.4441 24.6875 32.969 24.1629 32.969 23.5156ZM29.4534 10.625C30.0994 10.625 30.6252 11.1508 30.6252 11.7969C30.6252 12.4429 30.0994 12.9688 29.4534 12.9688C28.807 12.9688 28.2815 12.4429 28.2815 11.7969C28.2815 11.1508 28.807 10.625 29.4534 10.625Z" fill="white"/>
</svg>
