<svg width="28" height="28" viewBox="0 0 28 28" fill="none" xmlns="http://www.w3.org/2000/svg">
<path d="M13.9989 2.3252C7.56594 2.32636 2.33228 7.56003 2.33228 13.993C2.33228 20.426 7.56594 25.6597 14.0001 25.6597C20.4319 25.6597 25.6656 20.426 25.6668 13.993C25.6668 7.56003 20.4331 2.32636 13.9989 2.3252ZM14.0001 23.3264C8.85278 23.3264 4.66561 19.1392 4.66561 13.993C4.66561 8.84686 8.85278 4.6597 13.9989 4.65853C19.1463 4.6597 23.3334 8.84686 23.3334 13.993C23.3323 19.1392 19.1451 23.3264 14.0001 23.3264Z" fill="#6366F1"/>
<path d="M13.9999 12.8263H9.33325V15.1596H13.9999V18.6666L18.6724 13.9941L13.9999 9.32281V12.8263Z" fill="#6366F1"/>
</svg>
