<svg width="40" height="40" viewBox="0 0 40 40" fill="none" xmlns="http://www.w3.org/2000/svg">
<path d="M36.4844 1.25H3.51562C1.57715 1.25 0 2.82715 0 4.76562V28.2031C0 30.1416 1.57715 31.7188 3.51562 31.7188H13.6865L12.124 36.4062H8.28125C7.63397 36.4062 7.10938 36.9308 7.10938 37.5781C7.10938 38.2254 7.63397 38.75 8.28125 38.75H31.7188C32.366 38.75 32.8906 38.2254 32.8906 37.5781C32.8906 36.9308 32.366 36.4062 31.7188 36.4062H27.876L26.3135 31.7188H36.4844C38.4229 31.7188 40 30.1416 40 28.2031V4.76562C40 2.82715 38.4229 1.25 36.4844 1.25ZM14.5947 36.4062L16.1572 31.7188H23.8428L25.4053 36.4062H14.5947ZM37.6562 28.2031C37.6562 28.8492 37.1304 29.375 36.4844 29.375C33.0795 29.375 6.95587 29.375 3.51562 29.375C2.86957 29.375 2.34375 28.8492 2.34375 28.2031V27.0312H37.6562V28.2031ZM12.7795 17.9523L11.7136 16.8866L13.3707 15.2292L14.4366 16.2952C14.8145 16.673 15.4001 16.7474 15.8606 16.4758C16.5192 16.0876 17.2223 15.795 17.9501 15.6064C18.4671 15.4727 18.8281 15.0061 18.8281 14.472V12.9688H21.1719V14.472C21.1719 15.0061 21.5329 15.4727 22.0499 15.6064C22.7774 15.795 23.4805 16.0876 24.1391 16.4761C24.5996 16.7474 25.1852 16.673 25.563 16.2952L26.629 15.2292L28.2864 16.8866L27.2205 17.9526C26.8427 18.3304 26.7682 18.916 27.0398 19.3762C27.4283 20.0351 27.7206 20.7382 27.9092 21.4658C28.0429 21.9827 28.5095 22.3438 29.0436 22.3438H30.5469V24.6875H25.741C25.8191 24.3036 25.8594 23.9108 25.8594 23.5156C25.8594 20.2847 23.2309 17.6562 20 17.6562C16.7691 17.6562 14.1406 20.2847 14.1406 23.5156C14.1406 23.9108 14.1809 24.3036 14.259 24.6875H9.45312V22.3438H10.9564C11.4905 22.3438 11.9571 21.9827 12.0911 21.4658C12.2794 20.7382 12.572 20.0351 12.9602 19.3762C13.2315 18.916 13.1573 18.3304 12.7795 17.9523ZM23.5156 23.5156C23.5156 23.9169 23.446 24.3134 23.3142 24.6875H16.6858C16.554 24.3134 16.4844 23.9169 16.4844 23.5156C16.4844 21.5771 18.0615 20 20 20C21.9385 20 23.5156 21.5771 23.5156 23.5156ZM37.6562 24.6875H32.8906V21.1719C32.8906 20.5246 32.366 20 31.7188 20H29.9084C29.787 19.6594 29.6475 19.3246 29.4907 18.9966L30.7724 17.7151C31.2299 17.2574 31.2299 16.5155 30.7721 16.0577L27.4576 12.7432C27.2379 12.5235 26.9397 12.4002 26.629 12.4002C26.3184 12.4002 26.0202 12.5235 25.8005 12.7432L24.519 14.025C24.191 13.8681 23.8562 13.7286 23.5156 13.6075V11.7969C23.5156 11.1496 22.991 10.625 22.3438 10.625H17.6562C17.009 10.625 16.4844 11.1496 16.4844 11.7969V13.6075C16.1438 13.7286 15.809 13.8681 15.481 14.025L14.1995 12.7432C13.9798 12.5235 13.6816 12.4002 13.371 12.4002C13.06 12.4002 12.7621 12.5235 12.5421 12.7432L9.22791 16.0577C8.77014 16.5155 8.77014 17.2574 9.22791 17.7151L10.5093 18.9969C10.3525 19.3246 10.2133 19.6594 10.0919 20H8.28125C7.63397 20 7.10938 20.5249 7.10938 21.1719V24.6875H2.34375V4.76562C2.34375 4.11957 2.86957 3.59375 3.51562 3.59375H36.4844C37.1304 3.59375 37.6562 4.11957 37.6562 4.76562V24.6875Z" fill="white"/>
<path d="M31.7188 5.9375C29.7803 5.9375 28.2031 7.51465 28.2031 9.45312C28.2031 11.3916 29.7803 12.9688 31.7188 12.9688C33.6572 12.9688 35.2344 11.3916 35.2344 9.45312C35.2344 7.51465 33.6572 5.9375 31.7188 5.9375ZM31.7188 10.625C31.0727 10.625 30.5469 10.0992 30.5469 9.45312C30.5469 8.80707 31.0727 8.28125 31.7188 8.28125C32.3648 8.28125 32.8906 8.80707 32.8906 9.45312C32.8906 10.0992 32.3648 10.625 31.7188 10.625Z" fill="white"/>
</svg>
