<svg width="18" height="18" viewBox="0 0 18 18" fill="none" xmlns="http://www.w3.org/2000/svg">
<path d="M3.7522 16.5H6.7522H11.2522H14.2522C15.0794 16.5 15.7522 15.8273 15.7522 15V8.25C15.7522 8.05125 15.6734 7.86 15.5324 7.71975L9.53245 1.71975C9.2392 1.4265 8.7652 1.4265 8.47195 1.71975L2.47195 7.71975C2.33095 7.86 2.2522 8.05125 2.2522 8.25V15C2.2522 15.8273 2.92495 16.5 3.7522 16.5ZM7.5022 15V11.25H10.5022V15H7.5022ZM3.7522 8.5605L9.0022 3.3105L14.2522 8.5605L14.2529 15H12.0022V11.25C12.0022 10.4228 11.3294 9.75 10.5022 9.75H7.5022C6.67495 9.75 6.0022 10.4228 6.0022 11.25V15H3.7522V8.5605Z" fill="#9397AD"/>
</svg>
