<svg width="40" height="40" viewBox="0 0 40 40" fill="none" xmlns="http://www.w3.org/2000/svg">
<g clip-path="url(#clip0_2_2475)">
<path d="M29.6987 18.6082C31.9833 16.3236 31.9833 12.6066 29.6987 10.322C27.409 8.03229 23.7027 8.03168 21.4126 10.322C19.1281 12.6063 19.1281 16.3236 21.4126 18.6082C23.7023 20.8979 27.4087 20.8982 29.6987 18.6082ZM23.0697 11.9791C24.4436 10.6055 26.6674 10.6052 28.0416 11.9791C29.4122 13.35 29.4122 15.5802 28.0416 16.951C26.6677 18.325 24.4439 18.3253 23.0697 16.951C21.6992 15.5802 21.6992 13.35 23.0697 11.9791Z" fill="white"/>
<path d="M0.0535604 38.4767C-0.0773595 38.893 0.033724 39.3474 0.341645 39.6562C0.649872 39.9651 1.10428 40.0774 1.52053 39.9474C2.53799 39.6297 11.5321 36.7751 13.9546 34.3529C14.6034 33.7038 15.1316 32.9707 15.5213 32.1858C15.7444 32.1989 15.9443 32.1526 16.1231 32.0613C17.013 31.6072 17.9606 31.1357 18.9619 30.6346C19.4273 36.7 19.3903 35.7146 19.3919 36.3884C19.394 37.263 20.3172 37.8218 21.0905 37.4324C21.3825 37.2383 24.4141 36.1305 26.551 32.6662C27.7372 30.7432 28.3564 28.5319 28.3564 26.2718V25.4665C30.1206 24.3251 31.7624 23.1062 33.1082 21.8068C38.9307 16.1858 40.2454 9.2665 39.9643 1.16653C39.9429 0.551294 39.4489 0.0572146 38.8336 0.0358524C30.7358 -0.245215 23.8151 1.06857 18.1931 6.89193C16.9193 8.21151 15.7221 9.76028 14.6 11.4854H13.6253C9.06476 11.4854 4.82252 14.0919 2.74612 18.2469L2.46474 18.8066C2.28195 19.1695 2.30026 19.6007 2.51296 19.9467C2.72567 20.2928 3.10225 20.5043 3.50844 20.5052C4.17342 20.507 3.14773 20.46 9.37603 21.017C8.8847 21.999 8.39581 22.9808 7.93897 23.8768C7.83673 24.077 7.79706 24.2964 7.81537 24.5097C7.03809 24.8985 6.31178 25.4231 5.66847 26.0664C3.24691 28.4877 0.373383 37.4614 0.0535604 38.4767ZM15.8186 29.5879L10.4121 24.1814C10.7557 23.5002 11.1033 22.8023 11.5184 21.9731L18.0268 28.4819C17.1735 28.9088 16.5083 29.2403 15.8186 29.5879ZM21.6169 34.4707L21.2223 29.4939C22.7961 28.6891 24.4208 27.8288 25.9998 26.9118C25.803 30.0081 24.1834 32.7846 21.6169 34.4707ZM37.6495 2.35031C37.6889 4.91012 37.5406 7.17575 37.1838 9.2131C33.8581 8.74313 31.2571 6.14181 30.7871 2.81631C32.8241 2.45956 35.0897 2.31124 37.6495 2.35031ZM19.8792 8.51974C22.3344 5.97671 25.0736 4.29122 28.4952 3.33267C28.8251 5.37033 29.7824 7.25082 31.2659 8.73397C32.7494 10.2174 34.6295 11.1751 36.6672 11.5047C35.7086 14.9263 34.0232 17.6659 31.4801 20.1207C28.6426 22.8603 24.2802 25.2953 20.229 27.3695L12.6307 19.771C14.7047 15.7198 17.1397 11.3576 19.8792 8.51974ZM5.41487 18.2979C7.12995 15.6746 9.98211 14.0376 13.1526 13.889C12.2135 15.4994 11.3334 17.1602 10.5113 18.7678L5.41487 18.2979ZM9.31988 26.4037L10.6401 27.7238L8.15411 30.2098C7.69635 30.6673 7.69635 31.4094 8.15411 31.8669C8.61157 32.3247 9.35376 32.3247 9.81121 31.8669L12.2972 29.3809L13.6173 30.7011C13.3366 31.4241 12.888 32.1046 12.2972 32.6955C10.9541 34.0388 6.24525 35.8653 3.02352 36.981C4.14595 33.766 5.98097 29.0681 7.32557 27.7238C7.91638 27.133 8.59692 26.6844 9.31988 26.4037Z" fill="white"/>
<path d="M19.7348 20.264C19.2773 19.8065 18.5352 19.8065 18.0777 20.264C17.6199 20.7218 17.6199 21.4636 18.0777 21.9214C18.5352 22.3789 19.2773 22.3789 19.7348 21.9214C20.1926 21.4636 20.1926 20.7218 19.7348 20.264Z" fill="white"/>
</g>
<defs>
<clipPath id="clip0_2_2475">
<rect width="40" height="40" fill="white"/>
</clipPath>
</defs>
</svg>
