<svg width="40" height="40" viewBox="0 0 40 40" fill="none" xmlns="http://www.w3.org/2000/svg">
<path d="M29.375 40C31.3135 40 32.8906 38.4229 32.8906 36.4844V3.51562C32.8906 1.57715 31.3135 0 29.375 0H10.625C8.68652 0 7.10938 1.57715 7.10938 3.51562V36.4844C7.10938 38.4229 8.68652 40 10.625 40H29.375ZM9.45312 3.51562C9.45312 2.86957 9.97894 2.34375 10.625 2.34375H29.375C30.0211 2.34375 30.5469 2.86957 30.5469 3.51562V4.6875H9.45312V3.51562ZM9.45312 7.03125H30.5469V32.9688H9.45312V7.03125ZM9.45312 36.4844V35.3125H30.5469V36.4844C30.5469 37.1304 30.0211 37.6562 29.375 37.6562H10.625C9.97894 37.6562 9.45312 37.1304 9.45312 36.4844Z" fill="white"/>
<path d="M20 9.45312C15.4767 9.45312 11.7969 13.1329 11.7969 17.6562C11.7969 22.1719 15.47 25.8594 20 25.8594C24.5319 25.8594 28.2031 22.1707 28.2031 17.6562C28.2031 13.1329 24.5233 9.45312 20 9.45312ZM20 23.5156C18.9365 23.5156 17.9388 23.2294 17.0782 22.7319C17.7209 21.7743 18.8104 21.1719 20 21.1719C21.1893 21.1719 22.2791 21.7743 22.9218 22.7319C22.0612 23.2294 21.0635 23.5156 20 23.5156ZM18.8281 17.6562C18.8281 17.0102 19.3539 16.4844 20 16.4844C20.6461 16.4844 21.1719 17.0102 21.1719 17.6562C21.1719 18.3023 20.6461 18.8281 20 18.8281C19.3539 18.8281 18.8281 18.3023 18.8281 17.6562ZM24.6857 21.17C24.2068 20.5338 23.6044 20.0046 22.9205 19.6109C23.2962 19.0515 23.5156 18.3792 23.5156 17.6562C23.5156 15.7178 21.9385 14.1406 20 14.1406C18.0615 14.1406 16.4844 15.7178 16.4844 17.6562C16.4844 18.3792 16.7038 19.0515 17.0795 19.6109C16.3953 20.0046 15.7932 20.5341 15.3143 21.17C14.5776 20.1904 14.1406 18.9734 14.1406 17.6562C14.1406 14.4254 16.7691 11.7969 20 11.7969C23.2309 11.7969 25.8594 14.4254 25.8594 17.6562C25.8594 18.9734 25.4224 20.1904 24.6857 21.17Z" fill="white"/>
<path d="M21.1719 29.375C21.1719 30.0223 20.6473 30.5469 20 30.5469C19.3527 30.5469 18.8281 30.0223 18.8281 29.375C18.8281 28.7277 19.3527 28.2031 20 28.2031C20.6473 28.2031 21.1719 28.7277 21.1719 29.375Z" fill="white"/>
<path d="M25.8594 29.375C25.8594 30.0223 25.3348 30.5469 24.6875 30.5469C24.0402 30.5469 23.5156 30.0223 23.5156 29.375C23.5156 28.7277 24.0402 28.2031 24.6875 28.2031C25.3348 28.2031 25.8594 28.7277 25.8594 29.375Z" fill="white"/>
<path d="M16.4844 29.375C16.4844 30.0223 15.9598 30.5469 15.3125 30.5469C14.6652 30.5469 14.1406 30.0223 14.1406 29.375C14.1406 28.7277 14.6652 28.2031 15.3125 28.2031C15.9598 28.2031 16.4844 28.7277 16.4844 29.375Z" fill="white"/>
</svg>
