<svg width="122" height="44" viewBox="0 0 122 44" fill="none" xmlns="http://www.w3.org/2000/svg">
<path d="M60.6802 29.6488C61.4306 29.6488 62.1571 29.5533 62.8598 29.3623C63.5692 29.1713 64.2036 28.8848 64.763 28.5028C65.3224 28.1139 65.7658 27.6262 66.0932 27.0395C66.4275 26.446 66.5946 25.7536 66.5946 24.9623C66.5946 24.2187 66.4548 23.6048 66.1751 23.1204C65.9022 22.6361 65.5509 22.2473 65.1211 21.9539C64.6982 21.6538 64.2548 21.4218 63.7909 21.2581C63.327 21.0876 62.9041 20.9511 62.5221 20.8488L59.9639 20.153C59.6501 20.0711 59.3432 19.9688 59.043 19.846C58.7429 19.7232 58.4939 19.5629 58.296 19.3651C58.0982 19.1604 57.9993 18.8978 57.9993 18.5772C57.9993 18.2293 58.1187 17.9291 58.3574 17.6767C58.603 17.4243 58.9168 17.2333 59.2988 17.1037C59.6877 16.9673 60.1004 16.9059 60.537 16.9195C61.2055 16.94 61.8194 17.1378 62.3788 17.513C62.9382 17.8882 63.2998 18.4339 63.4635 19.1502L66.4718 18.6386C66.1171 17.2538 65.4281 16.193 64.4049 15.4563C63.3816 14.7195 62.106 14.3409 60.5779 14.3205C59.5683 14.3136 58.6474 14.4705 57.8151 14.7912C56.9829 15.1118 56.3177 15.5995 55.8198 16.2544C55.3218 16.9093 55.0728 17.7313 55.0728 18.7204C55.0728 19.4231 55.1887 20.0063 55.4207 20.4702C55.6594 20.9273 55.9562 21.2956 56.3109 21.5753C56.6656 21.855 57.0306 22.0699 57.4058 22.22C57.7878 22.3701 58.1221 22.486 58.4086 22.5679L62.2356 23.6935C62.8086 23.864 63.1906 24.0789 63.3816 24.3381C63.5726 24.5905 63.6681 24.8668 63.6681 25.167C63.6681 25.5763 63.5283 25.9208 63.2486 26.2004C62.9757 26.4801 62.6244 26.6916 62.1946 26.8349C61.7649 26.9781 61.3215 27.0497 60.8644 27.0497C60.0458 27.0497 59.3159 26.8212 58.6746 26.3642C58.0334 25.9071 57.6105 25.2556 57.4058 24.4097L54.4998 24.8395C54.6498 25.8355 55.0046 26.695 55.5639 27.4181C56.1301 28.1344 56.8498 28.687 57.723 29.0758C58.603 29.4578 59.5887 29.6488 60.6802 29.6488Z" fill="#0B0F19"/>
<path d="M69.0484 16.7558H71.8316V14.3H69.0484V16.7558ZM69.0484 29.3418H71.8316V18.2907H69.0484V29.3418Z" fill="#0B0F19"/>
<path d="M75.104 29.3418H77.8872V14.3H75.104V29.3418Z" fill="#0B0F19"/>
<path d="M81.1596 16.7558H83.9428V14.3H81.1596V16.7558ZM81.1596 29.3418H83.9428V18.2907H81.1596V29.3418Z" fill="#0B0F19"/>
<path d="M91.8812 29.6488C93.1637 29.6488 94.2415 29.3316 95.1147 28.6972C95.9879 28.0628 96.5813 27.1589 96.8951 25.9856L94.0505 25.3921C93.8868 25.9242 93.6412 26.3335 93.3137 26.62C92.9863 26.9065 92.5088 27.0497 91.8812 27.0497C91.0421 27.0497 90.4077 26.753 89.9779 26.1595C89.555 25.5592 89.3435 24.7781 89.3435 23.8163C89.3435 22.8953 89.5448 22.1279 89.9472 21.5139C90.3565 20.8932 91.0012 20.5828 91.8812 20.5828C92.3928 20.5828 92.8499 20.7431 93.2523 21.0637C93.6617 21.3843 93.9482 21.8311 94.1119 22.4042L96.8951 21.6674C96.6496 20.5282 96.0834 19.6311 95.1965 18.9763C94.3165 18.3146 93.2251 17.9837 91.9221 17.9837C90.7965 17.9837 89.821 18.2361 88.9956 18.7409C88.1702 19.2457 87.5289 19.9381 87.0719 20.8181C86.6217 21.6981 86.3965 22.6975 86.3965 23.8163C86.3965 24.9214 86.6148 25.9139 87.0514 26.7939C87.488 27.6739 88.1156 28.3697 88.9342 28.8814C89.7528 29.393 90.7351 29.6488 91.8812 29.6488Z" fill="#0B0F19"/>
<path d="M103.615 29.6488C104.72 29.6488 105.692 29.4032 106.531 28.9121C107.377 28.4141 108.036 27.7285 108.506 26.8553C108.984 25.9753 109.222 24.9623 109.222 23.8163C109.222 22.677 108.987 21.6708 108.516 20.7977C108.046 19.9177 107.387 19.2287 106.542 18.7307C105.702 18.2327 104.727 17.9837 103.615 17.9837C102.524 17.9837 101.558 18.2293 100.719 18.7204C99.8802 19.2116 99.2219 19.8972 98.7444 20.7772C98.2668 21.6504 98.0281 22.6634 98.0281 23.8163C98.0281 24.9555 98.26 25.9651 98.7239 26.8451C99.1946 27.7183 99.8495 28.4039 100.689 28.9018C101.528 29.3998 102.503 29.6488 103.615 29.6488ZM103.615 27.0497C102.749 27.0497 102.09 26.7598 101.64 26.18C101.197 25.5933 100.975 24.8054 100.975 23.8163C100.975 22.8544 101.187 22.0767 101.609 21.4832C102.039 20.8829 102.708 20.5828 103.615 20.5828C104.495 20.5828 105.157 20.8761 105.6 21.4628C106.05 22.0494 106.276 22.8339 106.276 23.8163C106.276 24.7645 106.054 25.5422 105.61 26.1493C105.174 26.7496 104.509 27.0497 103.615 27.0497Z" fill="#0B0F19"/>
<path d="M111.452 29.3418H114.276V23.7344C114.276 23.0454 114.351 22.4929 114.502 22.0767C114.658 21.6606 114.856 21.3468 115.095 21.1353C115.334 20.917 115.59 20.7704 115.862 20.6953C116.135 20.6203 116.391 20.5828 116.63 20.5828C117.223 20.5828 117.68 20.7158 118.001 20.9818C118.328 21.2479 118.564 21.5787 118.707 21.9744C118.85 22.3701 118.936 22.7657 118.963 23.1614C118.99 23.5502 119.004 23.8708 119.004 24.1232V29.3418H121.828V23.1409C121.828 22.9567 121.814 22.6634 121.787 22.2609C121.76 21.8584 121.681 21.415 121.552 20.9307C121.422 20.4395 121.204 19.9688 120.897 19.5186C120.597 19.0684 120.174 18.6966 119.628 18.4032C119.082 18.1099 118.376 17.9632 117.51 17.9632C116.712 17.9632 116.016 18.0963 115.422 18.3623C114.829 18.6284 114.331 18.9831 113.929 19.4265V18.2907H111.452V29.3418Z" fill="#0B0F19"/>
<path d="M10.2174 22L4.08696 12.2791L22.9891 0L22.4783 10.7442L10.2174 22Z" fill="url(#paint0_linear_2_4178)"/>
<path d="M22.4783 10.7442L22.9891 0L42.4022 8.69767L38.3152 26.093L12.2609 30.186L10.2174 22L22.4783 10.7442Z" fill="url(#paint1_linear_2_4178)"/>
<path d="M31.163 44L12.2609 30.186L38.3152 26.093L42.913 30.6977L31.163 44Z" fill="url(#paint2_linear_2_4178)"/>
<path d="M38.3152 26.093L42.913 30.6977L47 17.907L42.4022 8.69767L38.3152 26.093Z" fill="url(#paint3_linear_2_4178)"/>
<path d="M12.2609 30.186L31.163 44L12.2609 41.4418L0 26.6046L12.2609 30.186Z" fill="url(#paint4_linear_2_4178)"/>
<path d="M4.08696 12.2791L0 26.6046L12.2609 30.186L10.2174 22L4.08696 12.2791Z" fill="url(#paint5_linear_2_4178)"/>
<path d="M31.1636 44L12.2615 30.186L38.3158 26.093L42.9136 30.6977L31.1636 44Z" fill="black" fill-opacity="0.17"/>
<path d="M38.3147 26.0931L42.9125 30.6977L46.9995 17.9071L42.4017 8.69775L38.3147 26.0931Z" fill="black" fill-opacity="0.1"/>
<path d="M12.2609 30.1861L31.163 44L12.2609 41.4419L0 26.6047L12.2609 30.1861Z" fill="black" fill-opacity="0.23"/>
<path d="M4.08696 12.2791L0 26.6046L12.2609 30.186L10.2174 22L4.08696 12.2791Z" fill="#C0C0C0" fill-opacity="0.05"/>
<path d="M10.2174 22L4.08696 12.2791L22.9891 0L22.4783 10.7442L10.2174 22Z" fill="white" fill-opacity="0.15"/>
<path fill-rule="evenodd" clip-rule="evenodd" d="M10.2174 22L22.4783 10.7442L22.9891 0L4.08696 12.2791L10.2174 22ZM10.2807 21.5255L22.1781 10.6033L22.6545 0.583262L4.50783 12.3716L10.2807 21.5255Z" fill="white" fill-opacity="0.15"/>
<path fill-rule="evenodd" clip-rule="evenodd" d="M22.7784 10.885L10.559 22.1028L12.4903 29.8393L38.0641 25.8217L42.0458 8.87429L23.2739 0.4639L22.7784 10.885ZM22.4783 10.7442L10.2174 22L12.2609 30.186L38.3152 26.093L42.4022 8.69767L22.9891 0L22.4783 10.7442Z" fill="white" fill-opacity="0.15"/>
<path fill-rule="evenodd" clip-rule="evenodd" d="M31.1183 43.5873L42.4924 30.7105L38.2087 26.4205L13.0388 30.3745L31.1183 43.5873ZM31.163 44L42.913 30.6977L38.3152 26.093L12.2609 30.186L31.163 44Z" fill="white" fill-opacity="0.15"/>
<path fill-rule="evenodd" clip-rule="evenodd" d="M42.913 30.6977L47 17.907L42.4022 8.69767L38.3152 26.093L42.913 30.6977ZM38.6527 25.9969L42.7743 30.1246L46.67 17.9325L42.5066 9.59332L38.6527 25.9969Z" fill="white" fill-opacity="0.15"/>
<path fill-rule="evenodd" clip-rule="evenodd" d="M12.1235 30.4657L0.872793 27.1793L12.4206 41.1537L30.0047 43.5334L12.1235 30.4657ZM12.2609 30.186L0 26.6046L12.2609 41.4418L31.163 44L12.2609 30.186Z" fill="white" fill-opacity="0.15"/>
<path fill-rule="evenodd" clip-rule="evenodd" d="M0.378475 26.3954L11.834 29.7416L9.93196 22.1222L4.19353 13.0229L0.378475 26.3954ZM0 26.6046L12.2609 30.186L10.2174 22L4.08696 12.2791L0 26.6046Z" fill="white" fill-opacity="0.15"/>
<path d="M23.6972 19.0156H27.1656C27.1154 15.9651 24.6082 13.859 20.7971 13.859C17.0446 13.859 14.2949 15.9317 14.3117 19.0407C14.3033 21.5647 16.0835 23.0105 18.9752 23.7042L20.8389 24.1722C22.7026 24.6235 23.739 25.1584 23.7473 26.3118C23.739 27.5654 22.5522 28.4179 20.7135 28.4179C18.8331 28.4179 17.4792 27.5487 17.3622 25.8354H13.8604C13.9523 29.5378 16.6016 31.4517 20.7553 31.4517C24.9341 31.4517 27.3912 29.4542 27.3996 26.3201C27.3912 23.4702 25.2433 21.9575 22.2681 21.2889L20.7303 20.9211C19.2426 20.5785 17.9973 20.0269 18.0224 18.7983C18.0224 17.6951 19.0002 16.8844 20.7721 16.8844C22.5021 16.8844 23.5635 17.6701 23.6972 19.0156Z" fill="white"/>
<path d="M32.5507 19.3023H29.3182V31.2093H32.5507V19.3023Z" fill="white"/>
<path d="M31.3458 9.90698H30.1627L28.6888 10.8401V11.9564L30.0522 11.1017H30.0871V15.8605H31.3458V9.90698Z" fill="white"/>
<path d="M32.6707 14.814H35.5282V15.8605H36.7317V14.814H37.4701V13.8052H36.7317V9.90698H35.1561L32.6707 13.8227V14.814ZM35.5515 13.8052H33.9381V13.7587L35.505 11.2791H35.5515V13.8052Z" fill="white"/>
<defs>
<linearGradient id="paint0_linear_2_4178" x1="0" y1="22.1053" x2="47" y2="22.1053" gradientUnits="userSpaceOnUse">
<stop stop-color="#6366F1"/>
<stop offset="0.5" stop-color="#8B5CF6"/>
<stop offset="1" stop-color="#D946EF"/>
</linearGradient>
<linearGradient id="paint1_linear_2_4178" x1="0" y1="22.1053" x2="47" y2="22.1053" gradientUnits="userSpaceOnUse">
<stop stop-color="#6366F1"/>
<stop offset="0.5" stop-color="#8B5CF6"/>
<stop offset="1" stop-color="#D946EF"/>
</linearGradient>
<linearGradient id="paint2_linear_2_4178" x1="0" y1="22.1053" x2="47" y2="22.1053" gradientUnits="userSpaceOnUse">
<stop stop-color="#6366F1"/>
<stop offset="0.5" stop-color="#8B5CF6"/>
<stop offset="1" stop-color="#D946EF"/>
</linearGradient>
<linearGradient id="paint3_linear_2_4178" x1="0" y1="22.1053" x2="47" y2="22.1053" gradientUnits="userSpaceOnUse">
<stop stop-color="#6366F1"/>
<stop offset="0.5" stop-color="#8B5CF6"/>
<stop offset="1" stop-color="#D946EF"/>
</linearGradient>
<linearGradient id="paint4_linear_2_4178" x1="0" y1="22.1053" x2="47" y2="22.1053" gradientUnits="userSpaceOnUse">
<stop stop-color="#6366F1"/>
<stop offset="0.5" stop-color="#8B5CF6"/>
<stop offset="1" stop-color="#D946EF"/>
</linearGradient>
<linearGradient id="paint5_linear_2_4178" x1="0" y1="22.1053" x2="47" y2="22.1053" gradientUnits="userSpaceOnUse">
<stop stop-color="#6366F1"/>
<stop offset="0.5" stop-color="#8B5CF6"/>
<stop offset="1" stop-color="#D946EF"/>
</linearGradient>
</defs>
</svg>
