<svg width="40" height="40" viewBox="0 0 40 40" fill="none" xmlns="http://www.w3.org/2000/svg">
<path d="M20 9.53125C12.8922 9.53125 7.10938 15.3168 7.10938 22.4219C7.10938 29.5297 12.8949 35.3125 20 35.3125C27.1271 35.3125 32.8906 29.5139 32.8906 22.4219C32.8906 15.314 27.1051 9.53125 20 9.53125ZM29.375 23.5928H30.4813C30.2557 25.6241 29.4513 27.4838 28.2367 29.0012L27.4579 28.2224C27.0001 27.7649 26.2582 27.7649 25.8005 28.2224C25.3427 28.6801 25.343 29.422 25.8005 29.8798L26.5793 30.6586C25.062 31.8732 23.2031 32.6776 21.1719 32.9031V31.7969C21.1719 31.1496 20.6473 30.625 20 30.625C19.3527 30.625 18.8281 31.1496 18.8281 31.7969V32.9031C16.7969 32.6776 14.938 31.8732 13.4207 30.6586L14.1995 29.8798C14.657 29.422 14.6573 28.6801 14.1995 28.2224C13.7421 27.7649 12.9999 27.7649 12.5421 28.2224L11.7633 29.0015C10.5487 27.4838 9.74426 25.625 9.51874 23.5938H10.625C11.2723 23.5938 11.7969 23.0692 11.7969 22.4219C11.7969 21.7746 11.2723 21.25 10.625 21.25H9.51874C9.74426 19.2188 10.5487 17.3599 11.7633 15.8426L12.5421 16.6214C12.9999 17.0792 13.7418 17.0789 14.1995 16.6214C14.6573 16.1636 14.657 15.4218 14.1995 14.964L13.4207 14.1852C14.938 12.9706 16.7969 12.1661 18.8281 11.9406V13.0469C18.8281 13.6942 19.3527 14.2188 20 14.2188C20.6473 14.2188 21.1719 13.6942 21.1719 13.0469V11.9406C23.2031 12.1661 25.062 12.9706 26.5793 14.1852L25.8005 14.964C25.343 15.4218 25.3427 16.1636 25.8005 16.6214C26.2579 17.0789 27.0001 17.0789 27.4579 16.6214L28.2367 15.8423C29.4513 17.3599 30.2557 19.2188 30.4813 21.25H29.375C28.7277 21.25 28.2031 21.7746 28.2031 22.4219C28.2031 23.0692 28.7277 23.5928 29.375 23.5928Z" fill="white"/>
<path d="M21.1719 21.9363V17.7344C21.1719 17.0871 20.6473 16.5625 20 16.5625C19.3527 16.5625 18.8281 17.0871 18.8281 17.7344V22.4219C18.8281 22.7325 18.9514 23.0307 19.1714 23.2504L21.5152 25.5942C21.9727 26.0519 22.7148 26.0519 23.1723 25.5942C23.6301 25.1364 23.6301 24.3945 23.1723 23.9371L21.1719 21.9363Z" fill="white"/>
<path d="M34.8911 9.18793C35.3488 8.73016 35.3488 7.98828 34.8911 7.53082C34.4336 7.07306 33.6914 7.07306 33.2339 7.53082L31.5732 9.19128C29.2581 7.16064 26.4938 5.79529 23.5156 5.19379V1.17188C23.5156 0.524597 22.991 0 22.3438 0H17.6562C17.009 0 16.4844 0.524597 16.4844 1.17188V5.19379C13.5446 5.78735 10.813 7.12463 8.51654 9.11224L6.72363 7.49023C6.24359 7.05597 5.50262 7.09351 5.06836 7.57324C4.63409 8.05328 4.67133 8.79425 5.15137 9.22852L6.84662 10.762C3.98621 13.9798 2.42188 18.0804 2.42188 22.4219C2.42188 32.1368 10.2838 40 20 40C29.715 40 37.5781 32.1381 37.5781 22.4219C37.5781 18.1195 36.0419 14.0536 33.2303 10.8487L34.8911 9.18793ZM18.8281 2.34375H21.1719V4.88312C20.7834 4.85779 20.3928 4.84375 20 4.84375C19.6072 4.84375 19.2166 4.85779 18.8281 4.88312V2.34375ZM35.2344 22.4219C35.2344 30.8221 28.4003 37.6562 20 37.6562C11.5997 37.6562 4.76562 30.8221 4.76562 22.4219C4.76562 14.0216 11.5997 7.1875 20 7.1875C28.4003 7.1875 35.2344 14.0216 35.2344 22.4219Z" fill="white"/>
</svg>
