<svg width="40" height="40" viewBox="0 0 40 40" fill="none" xmlns="http://www.w3.org/2000/svg">
<g clip-path="url(#clip0_2_2536)">
<path d="M35.6527 4.37775C29.7 -1.56342 20.014 -1.56342 14.0612 4.37775C8.96549 9.46352 8.23256 17.2788 11.8606 23.1507L1.06921 33.9206C-0.304321 35.2918 -0.304321 37.5226 1.06921 38.8938C2.44274 40.2646 4.67825 40.2646 6.05178 38.8938L11.0344 33.921C11.0344 33.921 11.0344 33.9206 11.0347 33.9206L16.8431 28.1235C22.7427 31.7545 30.5693 31.0004 35.6524 25.9272C41.6055 19.986 41.6055 10.3189 35.6527 4.37775ZM4.39113 37.2361C3.93339 37.6932 3.18822 37.6932 2.73017 37.2361C2.27243 36.7789 2.27243 36.0355 2.73017 35.5784L3.56065 34.7495L5.22161 36.4072L4.39113 37.2361ZM6.88226 34.7495L5.22161 33.0918L6.88226 31.4344L8.54322 33.0918L6.88226 34.7495ZM10.2042 31.4344L8.54322 29.7767L13.2622 25.0669C13.5157 25.3614 13.7817 25.6485 14.0612 25.9272C14.3407 26.2061 14.6281 26.4719 14.9232 26.7246L10.2042 31.4344ZM33.9918 24.2698C28.9548 29.2966 20.7592 29.2966 15.7219 24.2698C10.6852 19.2426 10.6852 11.0626 15.7219 6.03547C20.7589 1.0083 28.9545 1.008 33.9918 6.03547C39.0288 11.0626 39.0288 19.2426 33.9918 24.2698Z" fill="white"/>
<path d="M32.3308 7.69258C28.206 3.57545 21.5083 3.57514 17.3828 7.69258C13.258 11.8094 13.2577 18.494 17.3828 22.6114C21.508 26.7283 28.2057 26.7286 32.3308 22.6114C36.456 18.4943 36.456 11.8097 32.3308 7.69258ZM30.6699 20.9537C27.4645 24.1529 22.2492 24.1529 19.0438 20.9537C15.8384 17.7545 15.8384 12.5492 19.0438 9.3503C22.2492 6.15113 27.4645 6.15083 30.6699 9.3503C33.8753 12.5492 33.8753 17.7545 30.6699 20.9537Z" fill="white"/>
<path d="M29.8539 11.9872C29.2739 11.6979 28.5685 11.9325 28.2783 12.5115L26.98 15.1033L25.6817 12.5115C25.4826 12.1144 25.0759 11.8636 24.631 11.8636C24.1861 11.8636 23.7798 12.1144 23.5807 12.5115L22.2824 15.1033L20.9838 12.5115C20.6939 11.9325 19.9882 11.6979 19.4081 11.9872C18.8281 12.2768 18.5929 12.9808 18.8831 13.56L21.2317 18.2485C21.4308 18.6455 21.8375 18.8964 22.2824 18.8964C22.7273 18.8964 23.1337 18.6455 23.3327 18.2485L24.6313 15.6566L25.9296 18.2485C26.1284 18.6455 26.5351 18.8964 26.98 18.8964C27.4249 18.8964 27.8316 18.6455 28.0306 18.2485L30.3793 13.56C30.6694 12.9808 30.4343 12.2768 29.8539 11.9872Z" fill="white"/>
</g>
<defs>
<clipPath id="clip0_2_2536">
<rect width="40" height="40" fill="white"/>
</clipPath>
</defs>
</svg>
